<?xml version="1.0" encoding="UTF-8"?>
<svg id="Layer_1" xmlns="http://www.w3.org/2000/svg" version="1.1" viewBox="0 0 1117.1 837.8">
  <!-- Generator: Adobe Illustrator 29.1.0, SVG Export Plug-In . SVG Version: 2.1.0 Build 142)  -->
  <defs>
    <style>
      .st0 {
        fill: #99c43d;
      }

      .st1 {
        fill: #8c5723;
      }

      .st2 {
        fill: #0a0904;
      }

      .st3 {
        fill: #a47b2c;
      }

      .st4 {
        fill: #dda7ad;
      }

      .st5 {
        fill: #89573d;
      }

      .st6 {
        fill: #e6cd88;
      }

      .st7 {
        fill: #6b8c3b;
      }
    </style>
  </defs>
  <path class="st5" d="M789.8,295.1c2.9-7.2,7.6-14.7,11.9-21.1,2.2-3.3,13.2-18.7,15.9-19.6s5.3,2.2,7,4.5c5.8,7.7,12.8,24,12.1,33.7-.7,8.4-5.8,12.1-8.8,19-4.4,10.2.8,23,1.7,33.9,1.1,12.4.4,25.8-3.9,37.5-2,5.2-4.8,10-7.5,14.8,4.7,13.7,17.7,21.6,27,31.9,28.4,31.5,37,68.1,31.3,109.8-2.5,18.1-7.5,37.5-8.1,55.7,0,2.8,0,13.4,3.1,14.3,7.5,2.3,19.7-8.4,24.4-13.5,39.1-42.6,19-111.7,23.2-163.9,2.1-26,14.2-80.1,38.7-93.8,16-8.9,28.7,6,30,21.3,2.8,32.8-21.6,49.9-29.8,78.1-9.9,34,3.3,64.1-1.3,97.9-8.2,60.1-56,104.1-111.1,123.5-30.7,10.8-67.9,10.6-100.1,10-9.6,17-37.8,27.9-53.8,13.8-8.4-7.3-5.2-21.2,1.1-28.9,2.3-2.8,6.1-5.1,7.3-8.5,1.2-3.1,1.5-9.7,1.9-13.4,1.5-14.2,2.7-28.8,3.8-43.1,1-13.6,4.9-50,0-61.1-6.3-14.3-13.6,9.1-15.1,14.4-5.5,19.3-6.9,40.9-10.1,60.8-2,12.6-3.8,32.5-11.1,42.9-10.9,15.5-39.2,17.8-54.2,7.4-11.4-7.9-7.2-27.1,3.4-34.2,6.8-4.5,14.6-5,17-14.1,2.7-10.3,1.7-23.8,2.5-34.6,3.1-43.7,8.7-88.6,20.2-130.9,4.1-15.1,12.2-31.5,14.5-46.6s-5.2-31.7-3.1-48.4c1.6-13.3,8.7-21.1,11.6-32.6,2.9-11.6-4.4-17.8-8.2-28.1-3.5-9.5-6.1-26.4-2.2-35.8.9-2.3,4.3-7.3,7-4.9,12.8,13.2,25.6,26.5,34.7,42.7,17.7-3,36.7-1.9,54.1,2.1s15.3,4.8,23,6.7Z"/>
  <g>
    <path class="st6" d="M779.5,323.1c13.4-1.3,25.3,10.5,26.3,23.6,1.6,20.5-19.4,38-38.5,26.5-21.1-12.8-12.5-47.7,12.2-50ZM777.8,335c-18.5,2.9-13,36.3,7.6,27.2,14.8-6.5,10.1-30-7.6-27.2Z"/>
    <path class="st6" d="M711.9,319.3c26.3-2.5,36.3,34.9,10.1,45-34.1,13.1-46-41.6-10.1-45ZM711.9,328.5c-8.1,1.3-15.5,12-10.7,19.7,4.9,7.7,15.7,8.6,22,2,9.5-9.9,2.2-23.9-11.3-21.7Z"/>
    <path class="st2" d="M736.6,386.2c0,9.2,14.4,19.1,21.8,11.7,3.7-3.7,1.7-6.8,3-9.6,1.3-2.9,3.8,0,3.4,3.4-1.7,17.4-24.5,14.2-29.9,1l-3.2,4.7c-9.3,9.2-26.5-2.2-26.2-13.6,0-2,1.7-8.8,4.5-6.9,1.9,1.3-.8,5.1-.7,7.4.2,8.9,15.2,18.4,21.2,8.7.7-1.1,2.7-6.6,2.7-7.7s-1.4-1.8-1.8-2.9c-1.4-3-4.7-10.8.1-11.9s10.6.3,12.3,1.1c5.4,2.6-2.6,14.5-7.2,14.6Z"/>
    <path class="st2" d="M777.8,335c17.7-2.8,22.4,20.8,7.6,27.2-20.6,9-26.1-24.3-7.6-27.2Z"/>
    <path class="st2" d="M711.9,328.5c13.5-2.2,20.8,11.8,11.3,21.7s-17.1,5.7-22-2c-4.9-7.7,2.6-18.4,10.7-19.7Z"/>
  </g>
  <g>
    <path class="st0" d="M538.1,398.2l15.4-10.5c17-9,36-14.5,55.2-16.7,33-3.9,67.2-1.9,99.4,5.9-2,5-4.3,8-1,13.3,4.9,7.7,16.7,14.1,23.9,5.6l3.3-5.7c1.5,5.5,8.5,11.9,14.2,12.8s4.1,0,5.7.3,6.8,8.7,7.8,10.7c6.6,13.7,3.6,25.4-5.4,37-14.7,19-31.1,18.7-52.7,12.4-49.6-14.3-106.6-44.7-156.2-12.6-8.4,5.4-14.6,12.9-23.1,18.3-7.6,4.8-14.9,5.6-22.9,1.3-1.2-.6-3.1-2.8-4.3-2.8s-4.4,1.9-5.8,2.3c-7,2-15,.5-20.6-4.3-1.1-.9-3.3-4.1-4.1-4.1-8.2,6.4-21.8,6.4-28.5-2-.9-1.2-2.3-4.9-3.4-3.7s-1.3,2.6-3,4c-11.3,9.8-32.4,1.7-39-10.3-3.2,1.5-6.2,4.4-10.1,4.9-18.3,2.4-25.4-10.1-31.9-24.7-4.6-10.3-5-20.4-14.7-27.9-27.1-20.9-78-25.4-111.3-34.3-57.6-15.3-129.8-48.3-146.9-111-14.7-53.8,30.1-78.2,72.8-47.2,16.4,11.9,25.4,27.9,38.8,42.5,36.9,40.3,77.5,52.6,123.8,76.9,21.4,11.2,40.7,24.7,57.8,41.7-.3-1.3-1.2-2.7-1.9-3.8-22.1-34.1-54.8-53.1-83.6-80.5-36.5-34.5-89.8-98.1-92.7-150-1.9-34.8,9.6-62.1,48.8-60.3,42.2,1.9,59.4,38.5,65.6,75.1,6.9,40.7,7,64.7,30.1,100.8,29,45.4,74.5,80.3,93.9,133l8.1,20c.9-5.8-.2-11.7-1.5-17.4-6.3-29.5-30.2-61.9-45-88.6-20.1-36.4-49.1-86.4-51.2-128.3-1.7-33.6.6-88.5,47.2-85.4,30.3,2,42.6,31.4,43.3,58.1.9,33.5-8.2,65.5-4.9,99.8,4.5,46.8,31.4,81,48,123.3l7.6,24.3c3.1-14.6,6.6-29.2,8.6-44,5.8-41.7,3.9-84,3.3-125.9-.6-44.2-4.7-115.1,31.9-147,34.7-30.3,65-.9,77.1,33.5,22.2,62.8,1.4,134.5-23.9,193.2-14,32.6-31.6,63.8-42.1,97.8ZM498.3,445.1c-1.5-14.1,3.4-28.5,7.5-41.9,8-26.1,15.8-49.6,21.7-76.5,9.2-41.7,17.4-85.5,24.6-127.5,4.6-27,11.1-63.9,6.6-90.8-.5-2.8-2.3-13.3-7.2-9.7-2.6,1.9-.3,5.2.1,7.6,4.8,28.5-2.6,69.1-7.6,97.8-8.9,50.5-18.2,105.6-31.6,154.9-7.3,27-19.7,53.1-21.7,81.2l-6.1-9.4c-26.7-51.2-59.8-100.7-81.9-154.2-17.8-43.1-26.2-98-16.5-144.1,1.2-5.5,5.3-16.7,5.3-21.4,0-4.6-4.7-5.1-6.2-1.2-8.2,20.7-10.9,49.5-10.2,71.6,1.7,54.5,17.3,94.1,41.7,141.5,21.6,41.9,46.5,82.1,69.1,123.4.9,1.7,1.9,5.4,2.9,6.4,1.8,1.8,2.9.4,4.4.5s2.2,2,5.6.7c12.9-8.7,24.6-19.3,38.7-26.2,47.6-23.5,118.1-26.3,167.7-7.6,3.2,1.2,18.5,10.3,15.6.8s-7.3-4.4-9-5.2c-52.6-23.9-139.1-19.1-188.2,11.7-7.9,5-15.1,11.4-22.8,16.5-.8.5-1.3,1.3-2.3,1.2ZM428,433.1c-1,.3-1-.4-1.5-.9-48.3-53.2-119.1-67.9-182-96.6-52.9-24.2-105.8-57-134.3-109.5-11.6-3.8-1.5,11.1.9,14.9,34,54.5,97.4,87.7,155.1,111.6,51.6,21.4,104,35.7,146.1,74.7s12.4,14.6,16.8,15.4,5.1-2.7,6.1-4.6c1.6-3.1-.3-11.4-1.3-14.9-12-44.1-72.8-88.6-104.4-121.9-45.4-47.9-74.7-107.1-83.9-173-.7-5.2-.5-13.1-1.8-17.8s-6.4-2.5-6.4,2c.2,40.4,22.5,102.2,42.9,137.1,19.3,32.9,47.3,60.6,74.5,86.9,24.2,23.4,52.7,44.9,67.3,76.2,2.9,6.2,6.1,13.4,6.1,20.4Z"/>
    <path class="st7" d="M498.3,445.1c1,.1,1.6-.7,2.3-1.2,7.7-5.1,14.8-11.5,22.8-16.5,49.1-30.8,135.7-35.6,188.2-11.7,1.7.8,8.6,3.9,9,5.2,2.9,9.5-12.4.4-15.6-.8-49.6-18.7-120.1-15.9-167.7,7.6-14.1,6.9-25.8,17.5-38.7,26.2-3.4,1.3-3.8-.5-5.6-.7s-2.5,1.3-4.4-.5-2-4.7-2.9-6.4c-22.6-41.3-47.5-81.5-69.1-123.4-24.4-47.4-40-87.1-41.7-141.5-.7-22.1,2.1-50.9,10.2-71.6,1.5-3.8,6.2-3.3,6.2,1.2,0,4.8-4.2,15.9-5.3,21.4-9.7,46.1-1.3,101,16.5,144.1,22.1,53.5,55.3,103,81.9,154.2l6.1,9.4c2-28.1,14.3-54.1,21.7-81.2,13.4-49.3,22.7-104.4,31.6-154.9,5.1-28.7,12.5-69.3,7.6-97.8-.4-2.4-2.8-5.7-.1-7.6,4.9-3.6,6.8,6.9,7.2,9.7,4.5,26.8-1.9,63.8-6.6,90.8-7.2,42.1-15.5,85.9-24.6,127.5-5.9,26.9-13.7,50.4-21.7,76.5-4.1,13.4-9,27.7-7.5,41.9Z"/>
    <path class="st7" d="M428,433.1c0-6.9-3.2-14.1-6.1-20.4-14.6-31.3-43.1-52.8-67.3-76.2-27.2-26.3-55.2-54-74.5-86.9-20.4-34.8-42.7-96.7-42.9-137.1,0-4.5,5.1-6.4,6.4-2s1.1,12.6,1.8,17.8c9.2,65.9,38.5,125.1,83.9,173,31.6,33.3,92.4,77.8,104.4,121.9,1,3.5,2.9,11.8,1.3,14.9s-3.7,5.1-6.1,4.6c-4.4-.9-12.9-11.9-16.8-15.4-42.1-39-94.5-53.4-146.1-74.7-57.7-23.9-121.1-57.1-155.1-111.6-2.4-3.8-12.4-18.7-.9-14.9,28.5,52.4,81.4,85.3,134.3,109.5,62.9,28.8,133.7,43.5,182,96.6.5.5.5,1.2,1.5.9Z"/>
  </g>
  <g>
    <path class="st4" d="M356.6,440.4c0,.6-.9,1.8-1,2.6-.4,4.5,17.6,24,21.7,27.7,36.7,32.6,107.7,34.6,148.3,8.1,6.1-4,10-9.3,16.2-12.7-.2-1.1-1.2-7.3-1.5-7.6s-.7,0-1,0c1.7-1.6,1.7-4.1,4.9-3.6s3.6,4.7,4.2,7.3c5.4,22.7-.6,62.7-4.3,86.4-4.3,27.6-10.5,58.4-26.1,81.9-16.5,25-30.1,54.7-76.7,64.5-43.5,9.1-79.5-5.3-95.3-44.1-20-49.1-16.8-131.3-4.9-182.6,1.2-5,7-28.2,10.3-30.6s5.4.2,5.2,2.8Z"/>
    <path class="st1" d="M539.2,458.4c.3,0,.9-.1,1,0,.2.3,1.3,6.5,1.5,7.6-6.1,3.4-10.1,8.8-16.2,12.7-40.5,26.5-111.5,24.5-148.3-8.1-4.1-3.6-22.2-23.2-21.7-27.7,0-.8,1-2,1-2.6,6.2-1.5,8.7,4.8,12.9,7.5,5.3,3.5,15.6,4.4,21.4,2s3.7-3.4,7.3-2.3,5.9,8.1,8.6,9.9c5.7,3.9,20.3,3,26-.6,2.9-1.9,4.4-6.2,8.6-3.4s2.3,3,3.5,4.1c3.9,3.6,11,4,16.1,3.5,3-.3,6.8-2.5,9.2-2.2s4.8,3.1,6.9,4.1c3.6,1.6,9.9,2.7,13.9,2.4s6.6-2.5,9.8-2.2,4.7,2.5,7.1,3.3c9.1,3.2,17.3-1.5,25.2-5.4s3.1-2.9,6.2-2.8Z"/>
  </g>
  <path class="st3" d="M818.2,397.9s-104.7,162.9-5.9,222.6c23,13,58.2-3.6,56.1-20.6s25.5-65.5,7.8-121.2c-17.7-55.7-58-80.9-58-80.9Z"/>
  <path class="st3" d="M944.3,351.3c-6,7.6,26.6,62.6,36.9,41.1,12.9-24.3,8.1-60.1-13.1-57.6-12.9.9-17.9,8.9-23.8,16.5Z"/>
  <path class="st3" d="M681.8,303.8s6.9-39.3-10.8-55.2c-7.7,26.4,10.8,55.2,10.8,55.2Z"/>
  <path class="st3" d="M826.2,319.5s-19-33.3-3.2-62.7c30.8,29.6,3.2,62.7,3.2,62.7Z"/>
</svg>